<?xml version="1.0" encoding="utf-8"?>
<!-- Generator: Adobe Illustrator 16.0.0, SVG Export Plug-In . SVG Version: 6.00 Build 0)  -->
<!DOCTYPE svg PUBLIC "-//W3C//DTD SVG 1.1//EN" "http://www.w3.org/Graphics/SVG/1.1/DTD/svg11.dtd">
<svg version="1.1" id="圖層_1" xmlns="http://www.w3.org/2000/svg" xmlns:xlink="http://www.w3.org/1999/xlink" x="0px" y="0px"
	 width="150px" height="150px" viewBox="0 0 150 150" enable-background="new 0 0 150 150" xml:space="preserve">
<path fill="#EA5514" d="M0,0v150h150V0H0z M65.926,139.659c-4.896,0-9.664-0.536-14.263-1.531l-2.54-8.654
	c5.33,1.568,10.965,2.423,16.803,2.423c32.828,0,59.44-26.609,59.44-59.439c0-32.827-26.612-59.44-59.44-59.44
	c-17.96,0-34.049,7.978-44.948,20.571l-2.546-8.674c12.159-12.147,28.949-19.66,47.494-19.66c37.115,0,67.203,30.088,67.203,67.203
	C133.129,109.573,103.041,139.659,65.926,139.659z"/>
<path fill="#EA5514" d="M-37.125,66.469c-8.176,0-15.577,3.312-20.938,8.667l1.123,3.824c4.805-5.551,11.896-9.068,19.814-9.068
	c14.472,0,26.203,11.732,26.203,26.203c0,14.473-11.731,26.203-26.203,26.203c-2.573,0-5.058-0.377-7.407-1.068l1.12,3.815
	c2.027,0.438,4.129,0.675,6.287,0.675c16.361,0,29.625-13.263,29.625-29.625C-7.5,79.732-20.764,66.469-37.125,66.469z"/>
</svg>
