<?xml version="1.0" encoding="utf-8"?>
<!-- Generator: Adobe Illustrator 16.0.0, SVG Export Plug-In . SVG Version: 6.00 Build 0)  -->
<!DOCTYPE svg PUBLIC "-//W3C//DTD SVG 1.1//EN" "http://www.w3.org/Graphics/SVG/1.1/DTD/svg11.dtd">
<svg version="1.1" id="圖層_1" xmlns="http://www.w3.org/2000/svg" xmlns:xlink="http://www.w3.org/1999/xlink" x="0px" y="0px"
	 width="150px" height="150px" viewBox="0 0 150 150" enable-background="new 0 0 150 150" xml:space="preserve">
<path fill="#EA5514" d="M-255,37v150h150V37H-255z M-189.074,176.659c-4.896,0-9.664-0.536-14.263-1.531l-2.54-8.654
	c5.33,1.568,10.965,2.423,16.803,2.423c32.828,0,59.44-26.609,59.44-59.439c0-32.827-26.612-59.44-59.44-59.44
	c-17.96,0-34.049,7.978-44.948,20.571l-2.546-8.674c12.159-12.147,28.949-19.66,47.494-19.66c37.115,0,67.203,30.088,67.203,67.203
	C-121.871,146.573-151.959,176.659-189.074,176.659z"/>
<path fill="#EA5514" d="M63.984-0.125c-20.732,0-39.501,8.397-53.095,21.977l2.848,9.696C25.922,17.472,43.906,8.553,63.984,8.553
	c36.698,0,66.448,29.752,66.448,66.448c0,36.701-29.75,66.447-66.448,66.447c-6.525,0-12.825-0.955-18.784-2.709l2.841,9.676
	c5.141,1.111,10.47,1.711,15.943,1.711c41.49,0,75.125-33.633,75.125-75.125C139.109,33.51,105.475-0.125,63.984-0.125z"/>
</svg>
